M48
;Layer_Color=9474304
;FILE_FORMAT=4:4
METRIC,LZ
;TYPE=PLATED
T1F00S00C0.3000
T2F00S00C0.9000
%
T01
X0017663Y00121496
X002Y001295
X00206038Y00208897
X00217Y0020925
X002305
X0023125Y00238713
X00214255Y00248496
X00173631Y0020925
X0013325Y002185
T02
X00024053Y00070696
Y00096096
Y00121496
Y00146896
Y00172295
Y00197696
Y00223095
Y00248496
X00049453
Y00223095
Y00197696
Y00172295
Y00146896
Y00121496
Y00096096
Y00070696
M30
