G04*
G04 #@! TF.GenerationSoftware,Altium Limited,Altium Designer,23.5.1 (21)*
G04*
G04 Layer_Color=32896*
%FSLAX44Y44*%
%MOMM*%
G71*
G04*
G04 #@! TF.SameCoordinates,BAE598E1-DFF8-4769-8F25-E61B10B1D6D2*
G04*
G04*
G04 #@! TF.FilePolarity,Positive*
G04*
G01*
G75*
%ADD11C,0.1000*%
%ADD12C,0.1500*%
D11*
X66597Y255480D02*
X70595D01*
X66597Y259479D01*
Y260478D01*
X67596Y261478D01*
X69596D01*
X70595Y260478D01*
X5535Y253194D02*
X3536D01*
X4536D01*
Y259192D01*
X5535Y258192D01*
X58018Y48216D02*
X56019D01*
X57018D01*
Y54214D01*
X58018Y53214D01*
X49021Y54214D02*
X51020Y53214D01*
X53020Y51215D01*
Y49216D01*
X52020Y48216D01*
X50021D01*
X49021Y49216D01*
Y50215D01*
X50021Y51215D01*
X53020D01*
X23053Y48216D02*
X21054D01*
X22053D01*
Y54214D01*
X23053Y53214D01*
X14056Y54214D02*
X18055D01*
Y51215D01*
X16055Y52215D01*
X15056D01*
X14056Y51215D01*
Y49216D01*
X15056Y48216D01*
X17055D01*
X18055Y49216D01*
D12*
X11353Y261196D02*
X62153D01*
Y57996D02*
Y261196D01*
X11353Y57996D02*
Y261196D01*
Y57996D02*
X62153D01*
M02*
