G04*
G04 #@! TF.GenerationSoftware,Altium Limited,Altium Designer,23.5.1 (21)*
G04*
G04 Layer_Physical_Order=2*
G04 Layer_Color=16711680*
%FSLAX44Y44*%
%MOMM*%
G71*
G04*
G04 #@! TF.SameCoordinates,BAE598E1-DFF8-4769-8F25-E61B10B1D6D2*
G04*
G04*
G04 #@! TF.FilePolarity,Positive*
G04*
G01*
G75*
%ADD28C,0.3000*%
%ADD30O,1.8000X1.4000*%
%ADD31C,0.6000*%
G36*
X272410Y2590D02*
X2590D01*
Y267410D01*
X272410D01*
Y2590D01*
D02*
G37*
%LPC*%
G36*
X51453Y257573D02*
X47453D01*
X45104Y257264D01*
X42914Y256357D01*
X41034Y254914D01*
X39592Y253034D01*
X38685Y250845D01*
X38375Y248496D01*
X38685Y246146D01*
X39592Y243957D01*
X41034Y242077D01*
X42914Y240634D01*
X45104Y239727D01*
X47453Y239418D01*
X51453D01*
X53802Y239727D01*
X55992Y240634D01*
X57872Y242077D01*
X59314Y243957D01*
X60221Y246146D01*
X60531Y248496D01*
X60221Y250845D01*
X59314Y253034D01*
X57872Y254914D01*
X55992Y256357D01*
X53802Y257264D01*
X51453Y257573D01*
D02*
G37*
G36*
X26053D02*
X22053D01*
X19704Y257264D01*
X17514Y256357D01*
X15634Y254914D01*
X14192Y253034D01*
X13285Y250845D01*
X12975Y248496D01*
X13285Y246146D01*
X14192Y243957D01*
X15634Y242077D01*
X17514Y240634D01*
X19704Y239727D01*
X22053Y239418D01*
X26053D01*
X28403Y239727D01*
X30592Y240634D01*
X32472Y242077D01*
X33914Y243957D01*
X34821Y246146D01*
X35131Y248496D01*
X34821Y250845D01*
X33914Y253034D01*
X32472Y254914D01*
X30592Y256357D01*
X28403Y257264D01*
X26053Y257573D01*
D02*
G37*
G36*
X51453Y232173D02*
X47453D01*
X45104Y231864D01*
X42914Y230957D01*
X41034Y229514D01*
X39592Y227634D01*
X38685Y225445D01*
X38375Y223095D01*
X38685Y220746D01*
X39592Y218557D01*
X41034Y216677D01*
X42914Y215234D01*
X45104Y214327D01*
X47453Y214018D01*
X51453D01*
X53802Y214327D01*
X55992Y215234D01*
X57872Y216677D01*
X59314Y218557D01*
X60221Y220746D01*
X60531Y223095D01*
X60221Y225445D01*
X59314Y227634D01*
X57872Y229514D01*
X55992Y230957D01*
X53802Y231864D01*
X51453Y232173D01*
D02*
G37*
G36*
X26053D02*
X22053D01*
X19704Y231864D01*
X17514Y230957D01*
X15634Y229514D01*
X14192Y227634D01*
X13285Y225445D01*
X12975Y223095D01*
X13285Y220746D01*
X14192Y218557D01*
X15634Y216677D01*
X17514Y215234D01*
X19704Y214327D01*
X22053Y214018D01*
X26053D01*
X28403Y214327D01*
X30592Y215234D01*
X32472Y216677D01*
X33914Y218557D01*
X34821Y220746D01*
X35131Y223095D01*
X34821Y225445D01*
X33914Y227634D01*
X32472Y229514D01*
X30592Y230957D01*
X28403Y231864D01*
X26053Y232173D01*
D02*
G37*
G36*
X215250Y253496D02*
X213260D01*
X211423Y252734D01*
X210016Y251328D01*
X209255Y249490D01*
Y247501D01*
X210016Y245663D01*
X210686Y244993D01*
Y213116D01*
X209416Y212590D01*
X208871Y213136D01*
X207033Y213897D01*
X205044D01*
X203206Y213136D01*
X201800Y211729D01*
X201038Y209892D01*
Y208293D01*
X197477Y204731D01*
X196703Y203573D01*
X196431Y202208D01*
Y133003D01*
X195761Y132332D01*
X195000Y130495D01*
Y128505D01*
X195761Y126668D01*
X197168Y125261D01*
X199005Y124500D01*
X200994D01*
X202832Y125261D01*
X204239Y126668D01*
X205000Y128505D01*
Y130495D01*
X204239Y132332D01*
X203569Y133003D01*
Y200729D01*
X206736Y203897D01*
X207033D01*
X208871Y204658D01*
X210277Y206065D01*
X210905Y207581D01*
X212090Y207729D01*
X212227Y207707D01*
X212761Y206418D01*
X214168Y205011D01*
X216005Y204250D01*
X217995D01*
X219832Y205011D01*
X221239Y206418D01*
X222000Y208255D01*
Y210245D01*
X221239Y212082D01*
X219832Y213489D01*
X217995Y214250D01*
X217824D01*
Y244993D01*
X218494Y245663D01*
X219255Y247501D01*
Y249490D01*
X218494Y251328D01*
X217087Y252734D01*
X215250Y253496D01*
D02*
G37*
G36*
X232245Y243713D02*
X230256D01*
X228418Y242952D01*
X227011Y241545D01*
X226250Y239707D01*
Y237718D01*
X227011Y235881D01*
X227682Y235210D01*
Y213494D01*
X227668Y213489D01*
X226261Y212082D01*
X225500Y210245D01*
Y208255D01*
X226261Y206418D01*
X227668Y205011D01*
X229506Y204250D01*
X231495D01*
X233332Y205011D01*
X234739Y206418D01*
X235500Y208255D01*
Y210245D01*
X234819Y211890D01*
Y235210D01*
X235489Y235881D01*
X236250Y237718D01*
Y239707D01*
X235489Y241545D01*
X234082Y242952D01*
X232245Y243713D01*
D02*
G37*
G36*
X134245Y223500D02*
X132255D01*
X130418Y222739D01*
X129011Y221332D01*
X128250Y219495D01*
Y218547D01*
X100467Y190764D01*
X59079D01*
X58453Y192034D01*
X59314Y193157D01*
X60221Y195346D01*
X60531Y197696D01*
X60221Y200045D01*
X59314Y202234D01*
X57872Y204114D01*
X55992Y205557D01*
X53802Y206464D01*
X51453Y206773D01*
X47453D01*
X45104Y206464D01*
X42914Y205557D01*
X41034Y204114D01*
X39592Y202234D01*
X38685Y200045D01*
X38375Y197696D01*
X38685Y195346D01*
X39592Y193157D01*
X40503Y191969D01*
X39976Y190570D01*
X39587Y190492D01*
X38430Y189719D01*
X29373Y180662D01*
X28403Y181064D01*
X26053Y181373D01*
X22053D01*
X19704Y181064D01*
X17514Y180157D01*
X15634Y178714D01*
X14192Y176834D01*
X13285Y174645D01*
X12975Y172295D01*
X13285Y169946D01*
X14192Y167757D01*
X15634Y165877D01*
X17514Y164434D01*
X19704Y163527D01*
X22053Y163218D01*
X26053D01*
X28403Y163527D01*
X30592Y164434D01*
X32472Y165877D01*
X33914Y167757D01*
X34821Y169946D01*
X35131Y172295D01*
X34821Y174645D01*
X34420Y175615D01*
X42431Y183627D01*
X101945D01*
X103311Y183899D01*
X104469Y184672D01*
X133297Y213500D01*
X134245D01*
X136082Y214261D01*
X137489Y215668D01*
X138250Y217505D01*
Y219495D01*
X137489Y221332D01*
X136082Y222739D01*
X134245Y223500D01*
D02*
G37*
G36*
X26053Y206773D02*
X22053D01*
X19704Y206464D01*
X17514Y205557D01*
X15634Y204114D01*
X14192Y202234D01*
X13285Y200045D01*
X12975Y197696D01*
X13285Y195346D01*
X14192Y193157D01*
X15634Y191277D01*
X17514Y189834D01*
X19704Y188927D01*
X22053Y188618D01*
X26053D01*
X28403Y188927D01*
X30592Y189834D01*
X32472Y191277D01*
X33914Y193157D01*
X34821Y195346D01*
X35131Y197696D01*
X34821Y200045D01*
X33914Y202234D01*
X32472Y204114D01*
X30592Y205557D01*
X28403Y206464D01*
X26053Y206773D01*
D02*
G37*
G36*
X51453Y181373D02*
X47453D01*
X45104Y181064D01*
X42914Y180157D01*
X41034Y178714D01*
X39592Y176834D01*
X38685Y174645D01*
X38375Y172295D01*
X38685Y169946D01*
X39592Y167757D01*
X41034Y165877D01*
X42914Y164434D01*
X45104Y163527D01*
X47453Y163218D01*
X51453D01*
X53802Y163527D01*
X55992Y164434D01*
X57872Y165877D01*
X59314Y167757D01*
X60221Y169946D01*
X60531Y172295D01*
X60221Y174645D01*
X59314Y176834D01*
X57872Y178714D01*
X55992Y180157D01*
X53802Y181064D01*
X51453Y181373D01*
D02*
G37*
G36*
Y155973D02*
X47453D01*
X45104Y155664D01*
X42914Y154757D01*
X41034Y153314D01*
X39592Y151434D01*
X38685Y149245D01*
X38375Y146896D01*
X38685Y144546D01*
X39592Y142357D01*
X41034Y140477D01*
X42914Y139034D01*
X45104Y138127D01*
X47453Y137818D01*
X51453D01*
X53802Y138127D01*
X55992Y139034D01*
X57872Y140477D01*
X59314Y142357D01*
X60221Y144546D01*
X60531Y146896D01*
X60221Y149245D01*
X59314Y151434D01*
X57872Y153314D01*
X55992Y154757D01*
X53802Y155664D01*
X51453Y155973D01*
D02*
G37*
G36*
X26053D02*
X22053D01*
X19704Y155664D01*
X17514Y154757D01*
X15634Y153314D01*
X14192Y151434D01*
X13285Y149245D01*
X12975Y146896D01*
X13285Y144546D01*
X14192Y142357D01*
X15634Y140477D01*
X17514Y139034D01*
X19704Y138127D01*
X22053Y137818D01*
X26053D01*
X28403Y138127D01*
X30592Y139034D01*
X32472Y140477D01*
X33914Y142357D01*
X34821Y144546D01*
X35131Y146896D01*
X34821Y149245D01*
X33914Y151434D01*
X32472Y153314D01*
X30592Y154757D01*
X28403Y155664D01*
X26053Y155973D01*
D02*
G37*
G36*
Y130573D02*
X25303D01*
Y122746D01*
X34966D01*
X34821Y123845D01*
X33914Y126034D01*
X32472Y127914D01*
X30592Y129357D01*
X28403Y130264D01*
X26053Y130573D01*
D02*
G37*
G36*
X22803D02*
X22053D01*
X19704Y130264D01*
X17514Y129357D01*
X15634Y127914D01*
X14192Y126034D01*
X13285Y123845D01*
X13140Y122746D01*
X22803D01*
Y130573D01*
D02*
G37*
G36*
X174626Y214250D02*
X172637D01*
X170799Y213489D01*
X169392Y212082D01*
X168631Y210245D01*
Y208255D01*
X169392Y206418D01*
X170799Y205011D01*
X172637Y204250D01*
X172773D01*
X173062Y203961D01*
Y124998D01*
X172391Y124328D01*
X171630Y122490D01*
Y120501D01*
X172391Y118663D01*
X173798Y117257D01*
X175636Y116496D01*
X177625D01*
X179462Y117257D01*
X180869Y118663D01*
X181630Y120501D01*
Y122490D01*
X180869Y124328D01*
X180199Y124998D01*
Y205439D01*
X179927Y206805D01*
X179153Y207963D01*
X178631Y208485D01*
Y210245D01*
X177870Y212082D01*
X176463Y213489D01*
X174626Y214250D01*
D02*
G37*
G36*
X51453Y130573D02*
X47453D01*
X45104Y130264D01*
X42914Y129357D01*
X41034Y127914D01*
X39592Y126034D01*
X38685Y123845D01*
X38375Y121496D01*
X38685Y119146D01*
X39592Y116957D01*
X41034Y115077D01*
X42914Y113634D01*
X45104Y112727D01*
X47453Y112418D01*
X51453D01*
X53802Y112727D01*
X55992Y113634D01*
X57872Y115077D01*
X59314Y116957D01*
X60221Y119146D01*
X60531Y121496D01*
X60221Y123845D01*
X59314Y126034D01*
X57872Y127914D01*
X55992Y129357D01*
X53802Y130264D01*
X51453Y130573D01*
D02*
G37*
G36*
X34966Y120246D02*
X25303D01*
Y112418D01*
X26053D01*
X28403Y112727D01*
X30592Y113634D01*
X32472Y115077D01*
X33914Y116957D01*
X34821Y119146D01*
X34966Y120246D01*
D02*
G37*
G36*
X22803D02*
X13140D01*
X13285Y119146D01*
X14192Y116957D01*
X15634Y115077D01*
X17514Y113634D01*
X19704Y112727D01*
X22053Y112418D01*
X22803D01*
Y120246D01*
D02*
G37*
G36*
X26053Y105173D02*
X25303D01*
Y97346D01*
X34966D01*
X34821Y98445D01*
X33914Y100634D01*
X32472Y102514D01*
X30592Y103957D01*
X28403Y104864D01*
X26053Y105173D01*
D02*
G37*
G36*
X22803D02*
X22053D01*
X19704Y104864D01*
X17514Y103957D01*
X15634Y102514D01*
X14192Y100634D01*
X13285Y98445D01*
X13140Y97346D01*
X22803D01*
Y105173D01*
D02*
G37*
G36*
X51453D02*
X47453D01*
X45104Y104864D01*
X42914Y103957D01*
X41034Y102514D01*
X39592Y100634D01*
X38685Y98445D01*
X38375Y96096D01*
X38685Y93746D01*
X39592Y91557D01*
X41034Y89677D01*
X42914Y88234D01*
X45104Y87327D01*
X47453Y87018D01*
X51453D01*
X53802Y87327D01*
X55992Y88234D01*
X57872Y89677D01*
X59314Y91557D01*
X60221Y93746D01*
X60531Y96096D01*
X60221Y98445D01*
X59314Y100634D01*
X57872Y102514D01*
X55992Y103957D01*
X53802Y104864D01*
X51453Y105173D01*
D02*
G37*
G36*
X34966Y94846D02*
X25303D01*
Y87018D01*
X26053D01*
X28403Y87327D01*
X30592Y88234D01*
X32472Y89677D01*
X33914Y91557D01*
X34821Y93746D01*
X34966Y94846D01*
D02*
G37*
G36*
X22803D02*
X13140D01*
X13285Y93746D01*
X14192Y91557D01*
X15634Y89677D01*
X17514Y88234D01*
X19704Y87327D01*
X22053Y87018D01*
X22803D01*
Y94846D01*
D02*
G37*
G36*
X51453Y79773D02*
X47453D01*
X45104Y79464D01*
X42914Y78557D01*
X41034Y77114D01*
X39592Y75234D01*
X38685Y73045D01*
X38375Y70696D01*
X38685Y68346D01*
X39592Y66157D01*
X41034Y64277D01*
X42914Y62834D01*
X45104Y61927D01*
X47453Y61618D01*
X51453D01*
X53802Y61927D01*
X55992Y62834D01*
X57872Y64277D01*
X59314Y66157D01*
X60221Y68346D01*
X60531Y70696D01*
X60221Y73045D01*
X59314Y75234D01*
X57872Y77114D01*
X55992Y78557D01*
X53802Y79464D01*
X51453Y79773D01*
D02*
G37*
G36*
X26053D02*
X22053D01*
X19704Y79464D01*
X17514Y78557D01*
X15634Y77114D01*
X14192Y75234D01*
X13285Y73045D01*
X12975Y70696D01*
X13285Y68346D01*
X14192Y66157D01*
X15634Y64277D01*
X17514Y62834D01*
X19704Y61927D01*
X22053Y61618D01*
X26053D01*
X28403Y61927D01*
X30592Y62834D01*
X32472Y64277D01*
X33914Y66157D01*
X34821Y68346D01*
X35131Y70696D01*
X34821Y73045D01*
X33914Y75234D01*
X32472Y77114D01*
X30592Y78557D01*
X28403Y79464D01*
X26053Y79773D01*
D02*
G37*
%LPD*%
D28*
X24053Y172295D02*
X26053D01*
X40953Y187195D01*
X101945D01*
X133250Y218500D01*
X200000Y202208D02*
X206038Y208246D01*
X200000Y129500D02*
Y202208D01*
X206038Y208246D02*
Y208897D01*
X176630Y121496D02*
Y205439D01*
X173631Y208438D02*
X176630Y205439D01*
X173631Y208438D02*
Y209250D01*
X231250Y210000D02*
Y238713D01*
X230500Y209250D02*
X231250Y210000D01*
X214255Y211995D02*
Y248496D01*
Y211995D02*
X217000Y209250D01*
D30*
X24053Y70696D02*
D03*
Y96096D02*
D03*
Y121496D02*
D03*
Y146896D02*
D03*
Y172295D02*
D03*
Y197696D02*
D03*
Y223095D02*
D03*
Y248496D02*
D03*
X49453Y70696D02*
D03*
Y96096D02*
D03*
Y121496D02*
D03*
Y146896D02*
D03*
Y172295D02*
D03*
Y197696D02*
D03*
Y223095D02*
D03*
Y248496D02*
D03*
D31*
X133250Y218500D02*
D03*
X206038Y208897D02*
D03*
X173631Y209250D02*
D03*
X200000Y129500D02*
D03*
X176630Y121496D02*
D03*
X230500Y209250D02*
D03*
X231250Y238713D02*
D03*
X217000Y209250D02*
D03*
X214255Y248496D02*
D03*
M02*
