G04*
G04 #@! TF.GenerationSoftware,Altium Limited,Altium Designer,23.5.1 (21)*
G04*
G04 Layer_Color=2752767*
%FSLAX44Y44*%
%MOMM*%
G71*
G04*
G04 #@! TF.SameCoordinates,BAE598E1-DFF8-4769-8F25-E61B10B1D6D2*
G04*
G04*
G04 #@! TF.FilePolarity,Positive*
G04*
G01*
G75*
%ADD32C,0.1270*%
D32*
X24053Y65616D02*
X18973Y75775D01*
X29133D01*
X24053Y65616D01*
Y91016D02*
X18973Y101175D01*
X29133D01*
X24053Y91016D01*
Y116416D02*
X18973Y126575D01*
X29133D01*
X24053Y116416D01*
Y141816D02*
X18973Y151975D01*
X29133D01*
X24053Y141816D01*
Y167215D02*
X18973Y177376D01*
X29133D01*
X24053Y167215D01*
Y192616D02*
X18973Y202775D01*
X29133D01*
X24053Y192616D01*
Y218015D02*
X18973Y228176D01*
X29133D01*
X24053Y218015D01*
Y243416D02*
X18973Y253575D01*
X29133D01*
X24053Y243416D01*
X49453Y65616D02*
X44373Y75775D01*
X54533D01*
X49453Y65616D01*
Y91016D02*
X44373Y101175D01*
X54533D01*
X49453Y91016D01*
Y116416D02*
X44373Y126575D01*
X54533D01*
X49453Y116416D01*
Y141816D02*
X44373Y151975D01*
X54533D01*
X49453Y141816D01*
Y167215D02*
X44373Y177376D01*
X54533D01*
X49453Y167215D01*
Y192616D02*
X44373Y202775D01*
X54533D01*
X49453Y192616D01*
Y218015D02*
X44373Y228176D01*
X54533D01*
X49453Y218015D01*
Y243416D02*
X44373Y253575D01*
X54533D01*
X49453Y243416D01*
X128170Y213420D02*
Y223580D01*
X138330D01*
Y213420D01*
X128170D01*
X200958Y203817D02*
Y213977D01*
X211118D01*
Y203817D01*
X200958D01*
X168551Y204170D02*
Y214330D01*
X178711D01*
Y204170D01*
X168551D01*
X194920Y124420D02*
Y134580D01*
X205080D01*
Y124420D01*
X194920D01*
X171550Y116416D02*
Y126575D01*
X181710D01*
Y116416D01*
X171550D01*
X225420Y204170D02*
Y214330D01*
X235580D01*
Y204170D01*
X225420D01*
X226170Y233633D02*
Y243793D01*
X236330D01*
Y233633D01*
X226170D01*
X211920Y204170D02*
Y214330D01*
X222080D01*
Y204170D01*
X211920D01*
X209175Y243416D02*
Y253575D01*
X219335D01*
Y243416D01*
X209175D01*
M02*
